<?xml version="1.0" encoding="utf-8"?>
<!-- Generator: Adobe Illustrator 24.3.0, SVG Export Plug-In . SVG Version: 6.00 Build 0)  -->
<svg version="1.1" id="Layer_1" xmlns="http://www.w3.org/2000/svg" xmlns:xlink="http://www.w3.org/1999/xlink" x="0px" y="0px"
	 viewBox="0 0 1080 1080" style="enable-background:new 0 0 1080 1080;" xml:space="preserve">
<style type="text/css">
	.st0{fill:#FFFFFF;}
	.st1{fill:#ED1C24;}
	.st2{fill:#231F20;}
</style>
<g>
	<path class="st0" d="M540.2,108.6c-237.8,0-431.3,193.4-431.4,431.2c0,97,28.3,169.7,76.2,245.8l-43.6,159.1l163.2-42.8
		c73.1,43.4,142.9,69.4,235.2,69.5c237.6,0,431.3-193.4,431.4-431.2C971.3,301.9,778.6,108.7,540.2,108.6z M793.8,725.3
		c-10.8,30.3-62.6,57.9-87.5,61.6c-22.3,3.3-50.6,4.7-81.7-5.1c-25.1-7.8-49.8-16.9-73.9-27.3c-130-56.1-214.9-187.1-221.4-195.8
		c-6.5-8.6-52.9-70.3-52.9-134.1s33.5-95.1,45.4-108.1c8.7-10,21.3-15.9,34.5-16.2l24.8,0.4c7.9,0.4,18.6-3,29.2,22.3
		c10.8,26,36.7,89.8,40,96.2c3.3,6.5,5.4,14.1,1.1,22.7s-6.5,14.2-13.1,21.6c-6.6,7.4-13.6,16.9-19.5,22.7
		c-6.4,6.5-13.2,13.5-5.7,26.4c7.5,12.9,33.7,55.5,72.1,89.8c49.5,44.2,91.3,57.8,104.3,64.3c12.9,6.5,20.5,5.4,28.1-3.2
		s32.4-37.9,41-50.8c8.6-12.9,17.3-10.8,29.2-6.5c11.9,4.3,75.6,35.7,88.6,42.2s21.6,9.7,24.8,15.1
		C804.3,669.1,804.6,694.9,793.8,725.3z"/>
	<path class="st1" d="M19,1063.5l73.6-268.8c-45.5-78.9-69.4-168.3-69.2-259.4c0.1-286,232.8-518.7,518.8-518.7
		c286.6,0,518.9,232.4,518.8,519c0,0.1,0,0.1,0,0.2c-0.2,286-232.9,518.8-518.8,518.8c-86.7,0-172-21.7-248.1-63.2L19,1063.5z
		 M306.8,897.4c73.1,43.4,142.9,69.4,235.2,69.5c237.7,0,431.3-193.4,431.4-431.2c0.1-238.4-192.6-431.5-431-431.5
		C304.5,104.2,111,297.6,111,535.4c0,97.1,28.3,169.7,76.2,245.8l-43.6,159.1L306.8,897.4z M803.5,659c-3.2-5.4-11.9-8.6-24.8-15.1
		c-12.9-6.5-76.7-37.9-88.6-42.2c-11.9-4.3-20.5-6.5-29.2,6.5c-8.7,13-33.5,42.2-41.1,50.8c-7.5,8.6-15.1,9.7-28.1,3.2
		c-12.9-6.5-54.8-20.1-104.3-64.3c-38.5-34.4-64.6-76.8-72.1-89.8c-7.5-13-0.8-20,5.7-26.4c5.8-5.8,12.9-15.1,19.5-22.7
		c6.5-7.6,8.7-12.9,13.1-21.6c4.4-8.7,2.2-16.2-1.1-22.7c-3.3-6.5-29.2-70.3-39.9-96.2c-10.6-25.2-21.3-21.8-29.2-22.2l-24.8-0.4
		c-13.4,0.3-26,6.2-34.8,16.2c-11.9,13-45.4,44.3-45.4,108.2s46.5,125.5,52.9,134.1c6.4,8.6,91.4,139.6,221.4,195.8
		c24.2,10.4,48.8,19.5,73.9,27.3c31.1,9.9,59.3,8.5,81.7,5.2c24.9-3.7,76.7-31.4,87.5-61.6C806.8,690.5,806.8,664.5,803.5,659z"/>
	<path class="st2" d="M141.4,229.8c93.2,92.9,193.5,178.3,300.2,255.4c106.5,77.1,219,145.6,336.4,204.8
		c66,33.3,133.4,63.7,202.2,91c6.7,2.7,14.5-2.9,16.3-9.3c2.2-7.5-2.6-13.7-9.3-16.4c-120.6-48.1-237.2-105.7-348.7-172.3
		c-111.1-66.2-216.8-141-316.2-223.8C266.1,312.4,212,263,160.1,211.1C148,199,129.2,217.8,141.4,229.8L141.4,229.8z"/>
	<path class="st2" d="M143.3,951c56-120.9,141.1-224.5,228.3-324c95.3-108.9,192.5-216,291.6-321.5
		c55.8-59.6,112.2-118.6,169.1-177.2c11.9-12.3-6.8-31.1-18.8-18.8c-101.8,104.7-201.8,211-300.1,319
		c-49.5,54.3-98.5,109.1-147,164.3c-44.2,50.2-87.8,100.9-128.3,154.1c-45.2,59.6-86.2,122.6-117.7,190.7
		C113.2,953,136.1,966.5,143.3,951L143.3,951z"/>
</g>
</svg>
